<?xml version="1.0" encoding="UTF-8"?>
<svg version="1.1" xmlns="http://www.w3.org/2000/svg" width="200" height="200">
<path d="M0 0 C5.61241131 3.44814812 9.28456175 8.27215616 11.4375 14.4375 C11.69476891 16.84200764 11.69476891 16.84200764 11.70492554 19.38874817 C11.71345551 20.36010208 11.72198547 21.33145599 11.73077393 22.33224487 C11.72986755 23.3863858 11.72896118 24.44052673 11.72802734 25.52661133 C11.73474457 26.6459053 11.74146179 27.76519928 11.74838257 28.91841125 C11.76738116 32.61882974 11.7712878 36.31906702 11.7734375 40.01953125 C11.77986431 42.59396947 11.78659259 45.16840695 11.79360962 47.74284363 C11.8055872 53.14051314 11.80937566 58.53811085 11.80810547 63.93579102 C11.80690492 70.16100118 11.82799266 76.38586417 11.8595928 82.61098653 C11.88897215 88.61404697 11.89607952 94.61691999 11.89488602 100.62006187 C11.89724374 103.1673086 11.90607682 105.71455799 11.92155075 108.2617588 C11.94118695 111.82819893 11.93538086 115.39375007 11.92333984 118.96020508 C11.93457886 120.00827332 11.94581787 121.05634155 11.95739746 122.13616943 C11.89456257 129.47514191 10.61836608 134.75139568 5.69140625 140.4609375 C5.13324219 140.90695313 4.57507813 141.35296875 4 141.8125 C3.16662109 142.50472656 3.16662109 142.50472656 2.31640625 143.2109375 C-4.3932731 147.59106082 -11.86834844 147.18005672 -19.5625 146.4375 C-26.76492864 144.50055444 -30.70600615 140.82816685 -34.50390625 134.5234375 C-36.20424008 131.1729642 -36.69139046 128.51857287 -36.71640015 124.81614685 C-36.72500061 123.86726089 -36.73360107 122.91837494 -36.74246216 121.94073486 C-36.74672211 120.90124695 -36.75098206 119.86175903 -36.75537109 118.79077148 C-36.76354858 117.69448929 -36.77172607 116.59820709 -36.78015137 115.46870422 C-36.80501046 111.83200629 -36.82152511 108.19534748 -36.8359375 104.55859375 C-36.84126118 103.31611437 -36.84658485 102.07363499 -36.85206985 100.79350471 C-36.87330278 95.56833327 -36.89243087 90.34316768 -36.90369225 85.11796474 C-36.91989969 77.64843326 -36.95299793 70.17942456 -37.01009309 62.7100901 C-37.05362083 56.81281123 -37.06945353 50.9156475 -37.07582474 45.01820564 C-37.08252963 42.51724596 -37.09773164 40.01629365 -37.12171555 37.51543999 C-37.1534397 34.00655698 -37.1533918 30.49897983 -37.14599609 26.98999023 C-37.16240143 25.96467194 -37.17880676 24.93935364 -37.19570923 23.88296509 C-37.1344376 16.74834406 -35.46933689 11.43912176 -31.5625 5.4375 C-29.2109375 3.18359375 -29.2109375 3.18359375 -26.9375 1.875 C-25.80441406 1.19244141 -25.80441406 1.19244141 -24.6484375 0.49609375 C-17.86376411 -2.94706447 -6.99822419 -3.18596199 0 0 Z " fill="#F4A462" transform="translate(177.5625,27.5625)"/>
<path d="M0 0 C5.52975774 3.4499816 9.30328023 8.30094261 11.375 14.4375 C11.64242554 17.49055481 11.64242554 17.49055481 11.66552734 20.93676758 C11.67828705 22.23193802 11.69104675 23.52710846 11.70419312 24.86152649 C11.70725126 26.26835988 11.70947876 27.67519529 11.7109375 29.08203125 C11.71737068 30.53545766 11.72409943 31.98888278 11.73110962 33.44230652 C11.74306671 36.48606363 11.74679214 39.5297074 11.74560547 42.57348633 C11.74540253 46.45713189 11.77268425 50.34004358 11.80714989 54.22351551 C11.8294855 57.22543111 11.83344097 60.22717206 11.83238602 63.22916222 C11.83473275 64.65998548 11.84350364 66.09081423 11.85905075 67.52155495 C11.94846548 76.60105593 11.76629281 83.34870878 5.62890625 90.4609375 C5.07074219 90.90695313 4.51257813 91.35296875 3.9375 91.8125 C3.10412109 92.50472656 3.10412109 92.50472656 2.25390625 93.2109375 C-4.68844042 97.74294759 -12.67385455 97.06753058 -20.625 96.4375 C-26.85288549 94.88285594 -31.16436767 90.73865971 -34.625 85.4375 C-36.51560367 81.48799977 -36.88628784 78.3000368 -36.91552734 73.93823242 C-36.92828705 72.64306198 -36.94104675 71.34789154 -36.95419312 70.01347351 C-36.95725126 68.60664012 -36.95947876 67.19980471 -36.9609375 65.79296875 C-36.96737068 64.33954234 -36.97409943 62.88611722 -36.98110962 61.43269348 C-36.99306671 58.38893637 -36.99679214 55.3452926 -36.99560547 52.30151367 C-36.99540253 48.41786811 -37.02268425 44.53495642 -37.05714989 40.65148449 C-37.0794855 37.64956889 -37.08344097 34.64782794 -37.08238602 31.64583778 C-37.08473275 30.21501452 -37.09350364 28.78418577 -37.10905075 27.35344505 C-37.19846548 18.27394407 -37.01629281 11.52629122 -30.87890625 4.4140625 C-30.32074219 3.96804687 -29.76257813 3.52203125 -29.1875 3.0625 C-28.63191406 2.60101563 -28.07632813 2.13953125 -27.50390625 1.6640625 C-20.26726982 -3.0600619 -7.91296299 -3.58003957 0 0 Z " fill="#E76E50" transform="translate(112.625,77.5625)"/>
<path d="M0 0 C5.9381298 3.77638367 9.48791936 8.68407484 11.3125 15.4375 C12.31163548 24.31402995 11.88112174 32.17697644 6.3125 39.4375 C-0.77110522 46.1765719 -7.29048121 46.89105474 -16.72265625 46.7109375 C-23.68666373 46.23066112 -27.45241191 44.0415261 -32.0625 38.9375 C-37.88612936 31.77996671 -37.4503566 24.39498052 -36.92578125 15.4921875 C-36.42739252 11.19460599 -34.71537442 8.42006957 -31.6875 5.4375 C-30.80384766 4.56544922 -30.80384766 4.56544922 -29.90234375 3.67578125 C-22.59664213 -2.97845653 -9.15813884 -4.18555564 0 0 Z " fill="#2B9D90" transform="translate(47.6875,127.5625)"/>
</svg>
